<?xml version="1.0" encoding="utf-8"?>
<!-- Generator: Adobe Illustrator 26.0.1, SVG Export Plug-In . SVG Version: 6.00 Build 0)  -->
<svg version="1.1" id="Layer_1" xmlns="http://www.w3.org/2000/svg" xmlns:xlink="http://www.w3.org/1999/xlink" x="0px" y="0px"
	 viewBox="0 0 934.4 160.8" style="enable-background:new 0 0 934.4 160.8;" xml:space="preserve">
<style type="text/css">
	.st0{fill:#FFFFFF;}
</style>
<g>
	<path className="st0" d="M16.8,40.7V14.2h159c0,7.5-2.6,13.7-7.9,18.8c-5.2,5.1-11.5,7.7-18.6,7.7H16.8z M43.3,146.6
		c-7.5,0-13.7-2.6-18.8-7.7c-5.1-5.2-7.7-11.5-7.7-18.8v-53h26.5v39.7c0,3.7,1.2,6.9,3.7,9.5c2.6,2.5,5.8,3.7,9.5,3.7h119.2
		c0,7.5-2.6,13.7-7.9,18.8c-5.2,5.1-11.5,7.7-18.6,7.7H43.3z"/>
	<path className="st0" d="M202.3,146.6V14.2h26.5v53h106c0,7.5-2.6,13.7-7.9,18.8c-5.2,5.1-11.5,7.7-18.6,7.7h-79.5v53H202.3z
		 M334.7,146.6V14.2h26.5v132.5H334.7z"/>
	<path className="st0" d="M414.2,40.7c-7.5,0-13.7-2.6-18.8-7.7c-5.1-5.2-7.7-11.5-7.7-18.8h159c0,7.5-2.6,13.7-7.9,18.8
		c-5.2,5.1-11.5,7.7-18.6,7.7H414.2z M387.7,146.6V67.2h159v79.5h-26.5v-53h-106v53H387.7z"/>
	<path className="st0" d="M573.2,146.6V67.2h119.2c3.6,0,6.7-1.2,9.3-3.7c2.6-2.6,3.9-5.8,3.9-9.5V40.7h-106c-7.5,0-13.7-2.6-18.8-7.7
		c-5.1-5.2-7.7-11.5-7.7-18.8h159v53c0,7.5-2.6,13.7-7.9,18.8c-5.2,5.1-11.5,7.7-18.6,7.7h-26.5l53,53h-39.7l-53-53h-39.7v53H573.2z
		"/>
	<path className="st0" d="M785.1,146.6c-7.5,0-13.7-2.6-18.8-7.7c-5.1-5.2-7.7-11.5-7.7-18.8h132.5v-53h26.5v53c0,7.5-2.6,13.7-7.9,18.8
		c-5.2,5.1-11.5,7.7-18.6,7.7H785.1z M838.1,40.7c-7.5,0-13.7-2.6-18.8-7.7c-5.1-5.2-7.7-11.5-7.7-18.8h106v26.5H838.1z"/>
</g>
</svg>
